<?xml version="1.0" encoding="UTF-8" standalone="no"?>
<!-- Created with Inkscape (http://www.inkscape.org/) -->

<svg
   xmlns:dc="http://purl.org/dc/elements/1.1/"
   xmlns:cc="http://creativecommons.org/ns#"
   xmlns:rdf="http://www.w3.org/1999/02/22-rdf-syntax-ns#"
   xmlns:svg="http://www.w3.org/2000/svg"
   xmlns="http://www.w3.org/2000/svg"
   xmlns:sodipodi="http://sodipodi.sourceforge.net/DTD/sodipodi-0.dtd"
   xmlns:inkscape="http://www.inkscape.org/namespaces/inkscape"
   width="500"
   height="500"
   viewBox="0 0 500.00001 500.00001"
   id="svg4168"
   version="1.1"
   inkscape:version="0.91 r13725"
   sodipodi:docname="icon.svg">
  <defs
     id="defs4170" />
  <sodipodi:namedview
     id="base"
     pagecolor="#ffffff"
     bordercolor="#666666"
     borderopacity="1.0"
     inkscape:pageopacity="0.0"
     inkscape:pageshadow="2"
     inkscape:zoom="1.5030374"
     inkscape:cx="261.42857"
     inkscape:cy="234.28571"
     inkscape:document-units="px"
     inkscape:current-layer="layer1"
     showgrid="false"
     units="px"
     inkscape:window-width="1855"
     inkscape:window-height="1056"
     inkscape:window-x="65"
     inkscape:window-y="24"
     inkscape:window-maximized="1" />
  <metadata
     id="metadata4173">
    <rdf:RDF>
      <cc:Work
         rdf:about="">
        <dc:format>image/svg+xml</dc:format>
        <dc:type
           rdf:resource="http://purl.org/dc/dcmitype/StillImage" />
        <dc:title></dc:title>
      </cc:Work>
    </rdf:RDF>
  </metadata>
  <g
     inkscape:label="Layer 1"
     inkscape:groupmode="layer"
     id="layer1"
     transform="translate(0,-552.36216)">
    <rect
       inkscape:export-ydpi="25.870001"
       inkscape:export-xdpi="25.870001"
       style="opacity:1;fill:none;fill-opacity:1;stroke:#000000;stroke-width:108.44117737;stroke-linecap:square;stroke-linejoin:miter;stroke-miterlimit:4;stroke-dasharray:none;stroke-dashoffset:0;stroke-opacity:1;paint-order:markers stroke fill"
       id="rect4181"
       width="391.55884"
       height="391.55884"
       x="54.220585"
       y="606.58276" />
    <g
       style="font-style:normal;font-variant:normal;font-weight:bold;font-stretch:normal;font-size:137.5px;line-height:125%;font-family:Menlo;-inkscape-font-specification:'Menlo Bold';letter-spacing:0px;word-spacing:0px;fill:#000000;fill-opacity:1;stroke:none;stroke-width:1px;stroke-linecap:butt;stroke-linejoin:miter;stroke-opacity:1"
       id="text4183"
       transform="matrix(2.9943706,0,0,2.9943705,-605.53452,-1621.5956)">
      <path
         inkscape:connector-curvature="0"
         d="m 280.71429,842.87994 10.25,0 c 1.75,0 3.125,-1.375 3.125,-3.125 l 0,-22.875 22.125,0 c 1.875,0 3.125,-1.375 3.125,-3.125 l 0,-9.125 c 0,-1.875 -1.25,-3.25 -3.125,-3.25 l -22.125,0 0,-22.125 c 0,-1.75 -1.375,-3.125 -3.125,-3.125 l -10.25,0 c -1.75,0 -3.125,1.375 -3.125,3.125 l 0,22.125 -22.25,0 c -1.875,0 -3.25,1.375 -3.25,3.25 l 0,9.125 c 0,1.75 1.375,3.125 3.25,3.125 l 22.25,0 0,22.875 c 0,1.75 1.375,3.125 3.125,3.125 z"
         style="font-style:normal;font-variant:normal;font-weight:bold;font-stretch:normal;font-size:125px;font-family:Rubik;-inkscape-font-specification:'Rubik Bold'"
         id="path4727" />
    </g>
  </g>
</svg>
