<?xml version="1.0" encoding="UTF-8" standalone="no"?>
<!-- Created with Inkscape (http://www.inkscape.org/) -->

<svg
   xmlns:dc="http://purl.org/dc/elements/1.1/"
   xmlns:cc="http://creativecommons.org/ns#"
   xmlns:rdf="http://www.w3.org/1999/02/22-rdf-syntax-ns#"
   xmlns:svg="http://www.w3.org/2000/svg"
   xmlns="http://www.w3.org/2000/svg"
   xmlns:sodipodi="http://sodipodi.sourceforge.net/DTD/sodipodi-0.dtd"
   xmlns:inkscape="http://www.inkscape.org/namespaces/inkscape"
   width="600"
   height="600"
   viewBox="0 0 600.00001 600.00001"
   id="svg2"
   version="1.1"
   inkscape:version="0.92.4 (unknown)"
   sodipodi:docname="icon.svg">
  <defs
     id="defs4" />
  <sodipodi:namedview
     id="base"
     pagecolor="#ffffff"
     bordercolor="#666666"
     borderopacity="1.0"
     inkscape:pageopacity="0.0"
     inkscape:pageshadow="2"
     inkscape:zoom="0.28439986"
     inkscape:cx="682.60271"
     inkscape:cy="989.61062"
     inkscape:document-units="px"
     inkscape:current-layer="layer2"
     showgrid="false"
     units="px"
     showguides="true"
     inkscape:guide-bbox="true"
     inkscape:window-width="1855"
     inkscape:window-height="1056"
     inkscape:window-x="65"
     inkscape:window-y="24"
     inkscape:window-maximized="1" />
  <metadata
     id="metadata7">
    <rdf:RDF>
      <cc:Work
         rdf:about="">
        <dc:format>image/svg+xml</dc:format>
        <dc:type
           rdf:resource="http://purl.org/dc/dcmitype/StillImage" />
        <dc:title />
      </cc:Work>
    </rdf:RDF>
  </metadata>
  <g
     inkscape:label="Layer 1"
     inkscape:groupmode="layer"
     id="layer1"
     transform="translate(0,-452.36216)"
     style="display:inline"
     sodipodi:insensitive="true">
    <rect
       style="opacity:1;fill:#00e487;fill-opacity:1;stroke:#000000;stroke-width:165.23800659;stroke-linecap:square;stroke-linejoin:miter;stroke-miterlimit:4;stroke-dasharray:none;stroke-dashoffset:0;stroke-opacity:1;paint-order:markers stroke fill"
       id="rect4136"
       width="434.7616"
       height="434.7616"
       x="82.619202"
       y="534.98138" />
  </g>
  <g
     inkscape:groupmode="layer"
     id="layer2"
     inkscape:label="Ventana"
     style="display:inline">
    <g
       id="g5504">
      <rect
         y="158.71939"
         x="212.5"
         height="82.561226"
         width="175"
         id="rect4138"
         style="opacity:1;fill:#000000;fill-opacity:1;stroke:none;stroke-width:193.63200378;stroke-linecap:square;stroke-linejoin:miter;stroke-miterlimit:4;stroke-dasharray:none;stroke-dashoffset:0;stroke-opacity:1;paint-order:markers stroke fill" />
      <rect
         y="241.28061"
         x="212.5"
         height="200"
         width="175"
         id="rect4140"
         style="opacity:1;fill:#ffffff;fill-opacity:1;stroke:none;stroke-width:193.63200378;stroke-linecap:square;stroke-linejoin:miter;stroke-miterlimit:4;stroke-dasharray:none;stroke-dashoffset:0;stroke-opacity:1;paint-order:markers stroke fill" />
      <g
         id="text4225"
         style="font-style:normal;font-variant:normal;font-weight:bold;font-stretch:normal;line-height:0%;font-family:Menlo;-inkscape-font-specification:'Menlo Bold';letter-spacing:0px;word-spacing:0px;fill:#000000;fill-opacity:1;stroke:none;stroke-width:1px;stroke-linecap:butt;stroke-linejoin:miter;stroke-opacity:1"
         aria-label=":D">
        <path
           id="path5494"
           style="font-style:normal;font-variant:normal;font-weight:500;font-stretch:normal;font-size:125px;line-height:1.25;font-family:Rubik;-inkscape-font-specification:'Rubik Medium'"
           d="m 251.46191,341.28061 h 12.375 c 1.75,0 3.125,-1.25 3.125,-3 v -11.875 c 0,-1.75 -1.375,-3.125 -3.125,-3.125 h -12.375 c -1.75,0 -3,1.375 -3,3.125 v 11.875 c 0,1.75 1.25,3 3,3 z m 0,43.75 h 12.375 c 1.75,0 3.125,-1.25 3.125,-3 v -11.875 c 0,-1.75 -1.375,-3.125 -3.125,-3.125 h -12.375 c -1.75,0 -3,1.375 -3,3.125 v 11.875 c 0,1.75 1.25,3 3,3 z" />
        <path
           id="path5496"
           style="font-style:normal;font-variant:normal;font-weight:500;font-stretch:normal;font-size:125px;line-height:1.25;font-family:Rubik;-inkscape-font-specification:'Rubik Medium'"
           d="m 287.5166,385.03061 h 31.125 c 25,0 36.25,-10.875 36.875,-34.125 0.25,-7.25 0.25,-12 0,-19.375 -0.5,-22 -12.25,-34 -37.5,-34 h -30.5 c -1.75,0 -3,1.25 -3,3.125 v 81.375 c 0,1.75 1.25,3 3,3 z m 14.375,-14.375 v -58.75 h 15.5 c 14.125,0 20.25,6.375 20.625,20 0.25,7.25 0.25,11.25 0,18.625 -0.375,14.375 -6,20.125 -20,20.125 z" />
      </g>
    </g>
    <path
       sodipodi:nodetypes="cccccccc"
       inkscape:connector-curvature="0"
       id="path5583"
       d="m 324.89684,284.5802 -0.008,158.31786 35.66632,-25.29625 17.76284,46.23338 30.9176,-12.41771 -18.68644,-45.86245 42.7202,-5.34704 z"
       style="fill:#ffffff;fill-opacity:1;fill-rule:evenodd;stroke:#000000;stroke-width:16.25196838;stroke-linecap:round;stroke-linejoin:round;stroke-miterlimit:4;stroke-dasharray:none;stroke-opacity:1" />
  </g>
</svg>
